<mxfile host="app.diagrams.net" modified="2021-10-29T11:49:19.683Z" agent="5.0 (Windows NT 10.0; Win64; x64) AppleWebKit/537.36 (KHTML, like Gecko) Chrome/95.0.4638.54 Safari/537.36 Edg/95.0.1020.30" etag="uL3FVP2dZmLQYx6HH1m_" version="15.6.2" type="github">
  <diagram id="C5RBs43oDa-KdzZeNtuy" name="Page-1">
    <mxGraphModel dx="1550" dy="2787" grid="1" gridSize="10" guides="1" tooltips="1" connect="1" arrows="1" fold="1" page="1" pageScale="1" pageWidth="1200" pageHeight="1920" math="0" shadow="0">
      <root>
        <mxCell id="WIyWlLk6GJQsqaUBKTNV-0" />
        <mxCell id="WIyWlLk6GJQsqaUBKTNV-1" parent="WIyWlLk6GJQsqaUBKTNV-0" />
        <mxCell id="z37wiqLl9ZZw4IJFHGuv-4" value="" style="rounded=1;whiteSpace=wrap;html=1;fillColor=#fff2cc;strokeColor=#d6b656;" vertex="1" parent="WIyWlLk6GJQsqaUBKTNV-1">
          <mxGeometry x="560" y="-70" width="330" height="1240" as="geometry" />
        </mxCell>
        <mxCell id="WIyWlLk6GJQsqaUBKTNV-3" value="客户端请求猫咪附身" style="rounded=1;whiteSpace=wrap;html=1;fontSize=12;glass=0;strokeWidth=1;shadow=0;" parent="WIyWlLk6GJQsqaUBKTNV-1" vertex="1">
          <mxGeometry x="582.5" y="-40" width="120" height="40" as="geometry" />
        </mxCell>
        <mxCell id="RxF8eHZoKBvsPmJdRb96-10" value="" style="edgeStyle=orthogonalEdgeStyle;rounded=0;orthogonalLoop=1;jettySize=auto;html=1;" parent="WIyWlLk6GJQsqaUBKTNV-1" source="WIyWlLk6GJQsqaUBKTNV-10" target="WIyWlLk6GJQsqaUBKTNV-12" edge="1">
          <mxGeometry relative="1" as="geometry" />
        </mxCell>
        <mxCell id="RxF8eHZoKBvsPmJdRb96-14" style="edgeStyle=orthogonalEdgeStyle;rounded=0;orthogonalLoop=1;jettySize=auto;html=1;exitX=0.5;exitY=1;exitDx=0;exitDy=0;entryX=0.5;entryY=0;entryDx=0;entryDy=0;" parent="WIyWlLk6GJQsqaUBKTNV-1" source="WIyWlLk6GJQsqaUBKTNV-10" target="RxF8eHZoKBvsPmJdRb96-12" edge="1">
          <mxGeometry relative="1" as="geometry" />
        </mxCell>
        <mxCell id="WIyWlLk6GJQsqaUBKTNV-10" value="当前是否选&lt;br&gt;技能卡阶段" style="rhombus;whiteSpace=wrap;html=1;shadow=0;fontFamily=Helvetica;fontSize=12;align=center;strokeWidth=1;spacing=6;spacingTop=-4;" parent="WIyWlLk6GJQsqaUBKTNV-1" vertex="1">
          <mxGeometry x="592.5" y="50" width="100" height="80" as="geometry" />
        </mxCell>
        <mxCell id="WIyWlLk6GJQsqaUBKTNV-12" value="返回错误" style="rounded=1;whiteSpace=wrap;html=1;fontSize=12;glass=0;strokeWidth=1;shadow=0;" parent="WIyWlLk6GJQsqaUBKTNV-1" vertex="1">
          <mxGeometry x="762.5" y="70" width="120" height="40" as="geometry" />
        </mxCell>
        <mxCell id="RxF8eHZoKBvsPmJdRb96-7" value="" style="endArrow=classic;html=1;rounded=0;entryX=0.5;entryY=0;entryDx=0;entryDy=0;exitX=0.5;exitY=1;exitDx=0;exitDy=0;" parent="WIyWlLk6GJQsqaUBKTNV-1" target="WIyWlLk6GJQsqaUBKTNV-10" edge="1" source="WIyWlLk6GJQsqaUBKTNV-3">
          <mxGeometry width="50" height="50" relative="1" as="geometry">
            <mxPoint x="642.5" y="10" as="sourcePoint" />
            <mxPoint x="632.5" y="100" as="targetPoint" />
          </mxGeometry>
        </mxCell>
        <mxCell id="RxF8eHZoKBvsPmJdRb96-8" value="no" style="text;html=1;strokeColor=none;fillColor=none;align=center;verticalAlign=middle;whiteSpace=wrap;rounded=0;" parent="WIyWlLk6GJQsqaUBKTNV-1" vertex="1">
          <mxGeometry x="682.5" y="60" width="60" height="30" as="geometry" />
        </mxCell>
        <mxCell id="RxF8eHZoKBvsPmJdRb96-22" style="edgeStyle=orthogonalEdgeStyle;rounded=0;orthogonalLoop=1;jettySize=auto;html=1;entryX=0.5;entryY=0;entryDx=0;entryDy=0;" parent="WIyWlLk6GJQsqaUBKTNV-1" source="RxF8eHZoKBvsPmJdRb96-12" target="RxF8eHZoKBvsPmJdRb96-15" edge="1">
          <mxGeometry relative="1" as="geometry" />
        </mxCell>
        <mxCell id="RxF8eHZoKBvsPmJdRb96-12" value="获取客户端传来的obj" style="rounded=0;whiteSpace=wrap;html=1;" parent="WIyWlLk6GJQsqaUBKTNV-1" vertex="1">
          <mxGeometry x="582.5" y="180" width="120" height="60" as="geometry" />
        </mxCell>
        <mxCell id="RxF8eHZoKBvsPmJdRb96-24" style="edgeStyle=orthogonalEdgeStyle;rounded=0;orthogonalLoop=1;jettySize=auto;html=1;entryX=0;entryY=0.5;entryDx=0;entryDy=0;" parent="WIyWlLk6GJQsqaUBKTNV-1" source="RxF8eHZoKBvsPmJdRb96-15" target="RxF8eHZoKBvsPmJdRb96-23" edge="1">
          <mxGeometry relative="1" as="geometry" />
        </mxCell>
        <mxCell id="RxF8eHZoKBvsPmJdRb96-27" style="edgeStyle=orthogonalEdgeStyle;rounded=0;orthogonalLoop=1;jettySize=auto;html=1;entryX=0.5;entryY=0;entryDx=0;entryDy=0;" parent="WIyWlLk6GJQsqaUBKTNV-1" source="RxF8eHZoKBvsPmJdRb96-15" target="RxF8eHZoKBvsPmJdRb96-26" edge="1">
          <mxGeometry relative="1" as="geometry" />
        </mxCell>
        <mxCell id="RxF8eHZoKBvsPmJdRb96-15" value="该obj是否&lt;br&gt;猫咪" style="rhombus;whiteSpace=wrap;html=1;" parent="WIyWlLk6GJQsqaUBKTNV-1" vertex="1">
          <mxGeometry x="602.5" y="290" width="80" height="80" as="geometry" />
        </mxCell>
        <mxCell id="RxF8eHZoKBvsPmJdRb96-23" value="返回错误" style="rounded=1;whiteSpace=wrap;html=1;fontSize=12;glass=0;strokeWidth=1;shadow=0;" parent="WIyWlLk6GJQsqaUBKTNV-1" vertex="1">
          <mxGeometry x="762.5" y="310" width="120" height="40" as="geometry" />
        </mxCell>
        <mxCell id="RxF8eHZoKBvsPmJdRb96-25" value="no" style="text;html=1;strokeColor=none;fillColor=none;align=center;verticalAlign=middle;whiteSpace=wrap;rounded=0;" parent="WIyWlLk6GJQsqaUBKTNV-1" vertex="1">
          <mxGeometry x="682.5" y="300" width="60" height="30" as="geometry" />
        </mxCell>
        <mxCell id="RxF8eHZoKBvsPmJdRb96-29" style="edgeStyle=orthogonalEdgeStyle;rounded=0;orthogonalLoop=1;jettySize=auto;html=1;exitX=1;exitY=0.5;exitDx=0;exitDy=0;entryX=0;entryY=0.5;entryDx=0;entryDy=0;" parent="WIyWlLk6GJQsqaUBKTNV-1" source="RxF8eHZoKBvsPmJdRb96-26" target="RxF8eHZoKBvsPmJdRb96-28" edge="1">
          <mxGeometry relative="1" as="geometry" />
        </mxCell>
        <mxCell id="RxF8eHZoKBvsPmJdRb96-36" style="edgeStyle=orthogonalEdgeStyle;rounded=0;orthogonalLoop=1;jettySize=auto;html=1;" parent="WIyWlLk6GJQsqaUBKTNV-1" source="RxF8eHZoKBvsPmJdRb96-26" target="RxF8eHZoKBvsPmJdRb96-35" edge="1">
          <mxGeometry relative="1" as="geometry" />
        </mxCell>
        <mxCell id="RxF8eHZoKBvsPmJdRb96-26" value="猫咪是否为非附身状态且可以被附身" style="rhombus;whiteSpace=wrap;html=1;" parent="WIyWlLk6GJQsqaUBKTNV-1" vertex="1">
          <mxGeometry x="600" y="410" width="85" height="90" as="geometry" />
        </mxCell>
        <mxCell id="RxF8eHZoKBvsPmJdRb96-28" value="返回错误" style="rounded=1;whiteSpace=wrap;html=1;fontSize=12;glass=0;strokeWidth=1;shadow=0;" parent="WIyWlLk6GJQsqaUBKTNV-1" vertex="1">
          <mxGeometry x="762.5" y="435" width="120" height="40" as="geometry" />
        </mxCell>
        <mxCell id="RxF8eHZoKBvsPmJdRb96-30" value="yes" style="text;html=1;strokeColor=none;fillColor=none;align=center;verticalAlign=middle;whiteSpace=wrap;rounded=0;" parent="WIyWlLk6GJQsqaUBKTNV-1" vertex="1">
          <mxGeometry x="582.5" y="140" width="60" height="30" as="geometry" />
        </mxCell>
        <mxCell id="RxF8eHZoKBvsPmJdRb96-31" value="yes" style="text;html=1;strokeColor=none;fillColor=none;align=center;verticalAlign=middle;whiteSpace=wrap;rounded=0;" parent="WIyWlLk6GJQsqaUBKTNV-1" vertex="1">
          <mxGeometry x="582.5" y="250" width="60" height="30" as="geometry" />
        </mxCell>
        <mxCell id="RxF8eHZoKBvsPmJdRb96-33" value="yes" style="text;html=1;strokeColor=none;fillColor=none;align=center;verticalAlign=middle;whiteSpace=wrap;rounded=0;" parent="WIyWlLk6GJQsqaUBKTNV-1" vertex="1">
          <mxGeometry x="582.5" y="370" width="60" height="30" as="geometry" />
        </mxCell>
        <mxCell id="RxF8eHZoKBvsPmJdRb96-34" value="no" style="text;html=1;strokeColor=none;fillColor=none;align=center;verticalAlign=middle;whiteSpace=wrap;rounded=0;" parent="WIyWlLk6GJQsqaUBKTNV-1" vertex="1">
          <mxGeometry x="682.5" y="420" width="60" height="30" as="geometry" />
        </mxCell>
        <mxCell id="RtcUCSP7e-oIE9BhKrY5-4" style="edgeStyle=orthogonalEdgeStyle;rounded=0;orthogonalLoop=1;jettySize=auto;html=1;entryX=0;entryY=0.5;entryDx=0;entryDy=0;" parent="WIyWlLk6GJQsqaUBKTNV-1" source="RxF8eHZoKBvsPmJdRb96-35" target="RtcUCSP7e-oIE9BhKrY5-1" edge="1">
          <mxGeometry relative="1" as="geometry" />
        </mxCell>
        <mxCell id="RtcUCSP7e-oIE9BhKrY5-6" style="edgeStyle=orthogonalEdgeStyle;rounded=0;orthogonalLoop=1;jettySize=auto;html=1;exitX=0.5;exitY=1;exitDx=0;exitDy=0;entryX=0.5;entryY=0;entryDx=0;entryDy=0;" parent="WIyWlLk6GJQsqaUBKTNV-1" source="RxF8eHZoKBvsPmJdRb96-35" target="RtcUCSP7e-oIE9BhKrY5-5" edge="1">
          <mxGeometry relative="1" as="geometry" />
        </mxCell>
        <mxCell id="RxF8eHZoKBvsPmJdRb96-35" value="猫咪是否为非附身状态" style="rhombus;whiteSpace=wrap;html=1;" parent="WIyWlLk6GJQsqaUBKTNV-1" vertex="1">
          <mxGeometry x="600" y="550" width="85" height="90" as="geometry" />
        </mxCell>
        <mxCell id="RtcUCSP7e-oIE9BhKrY5-1" value="返回错误" style="rounded=1;whiteSpace=wrap;html=1;fontSize=12;glass=0;strokeWidth=1;shadow=0;" parent="WIyWlLk6GJQsqaUBKTNV-1" vertex="1">
          <mxGeometry x="762.5" y="575" width="120" height="40" as="geometry" />
        </mxCell>
        <mxCell id="RtcUCSP7e-oIE9BhKrY5-2" value="no" style="text;html=1;strokeColor=none;fillColor=none;align=center;verticalAlign=middle;whiteSpace=wrap;rounded=0;" parent="WIyWlLk6GJQsqaUBKTNV-1" vertex="1">
          <mxGeometry x="682.5" y="560" width="60" height="30" as="geometry" />
        </mxCell>
        <mxCell id="RtcUCSP7e-oIE9BhKrY5-3" value="yes" style="text;html=1;strokeColor=none;fillColor=none;align=center;verticalAlign=middle;whiteSpace=wrap;rounded=0;" parent="WIyWlLk6GJQsqaUBKTNV-1" vertex="1">
          <mxGeometry x="582.5" y="510" width="60" height="30" as="geometry" />
        </mxCell>
        <mxCell id="RtcUCSP7e-oIE9BhKrY5-8" style="edgeStyle=orthogonalEdgeStyle;rounded=0;orthogonalLoop=1;jettySize=auto;html=1;exitX=0.5;exitY=1;exitDx=0;exitDy=0;" parent="WIyWlLk6GJQsqaUBKTNV-1" source="RtcUCSP7e-oIE9BhKrY5-5" target="RtcUCSP7e-oIE9BhKrY5-7" edge="1">
          <mxGeometry relative="1" as="geometry" />
        </mxCell>
        <mxCell id="RtcUCSP7e-oIE9BhKrY5-5" value="设置猫咪parentobj&lt;br&gt;设置猫咪附身状态，&lt;br&gt;状态不下发" style="rounded=0;whiteSpace=wrap;html=1;" parent="WIyWlLk6GJQsqaUBKTNV-1" vertex="1">
          <mxGeometry x="582.5" y="670" width="120" height="60" as="geometry" />
        </mxCell>
        <mxCell id="RtcUCSP7e-oIE9BhKrY5-9" style="edgeStyle=orthogonalEdgeStyle;rounded=0;orthogonalLoop=1;jettySize=auto;html=1;exitX=0.5;exitY=1;exitDx=0;exitDy=0;entryX=0.5;entryY=0;entryDx=0;entryDy=0;" parent="WIyWlLk6GJQsqaUBKTNV-1" source="RtcUCSP7e-oIE9BhKrY5-7" target="RtcUCSP7e-oIE9BhKrY5-10" edge="1">
          <mxGeometry relative="1" as="geometry">
            <mxPoint x="642.5" y="870" as="targetPoint" />
          </mxGeometry>
        </mxCell>
        <mxCell id="RtcUCSP7e-oIE9BhKrY5-7" value="被附身者设置childobj&lt;br&gt;设置被附身状态，&lt;br&gt;状态不下发" style="rounded=0;whiteSpace=wrap;html=1;" parent="WIyWlLk6GJQsqaUBKTNV-1" vertex="1">
          <mxGeometry x="582.5" y="760" width="120" height="60" as="geometry" />
        </mxCell>
        <mxCell id="RtcUCSP7e-oIE9BhKrY5-11" style="edgeStyle=orthogonalEdgeStyle;rounded=0;orthogonalLoop=1;jettySize=auto;html=1;exitX=0.5;exitY=1;exitDx=0;exitDy=0;entryX=0.5;entryY=0;entryDx=0;entryDy=0;" parent="WIyWlLk6GJQsqaUBKTNV-1" source="RtcUCSP7e-oIE9BhKrY5-10" edge="1" target="z37wiqLl9ZZw4IJFHGuv-0">
          <mxGeometry relative="1" as="geometry">
            <mxPoint x="642.5" y="960" as="targetPoint" />
          </mxGeometry>
        </mxCell>
        <mxCell id="RtcUCSP7e-oIE9BhKrY5-10" value="被附身者加猫咪头像buff&lt;br&gt;被附身者加猫咪增益buff" style="rounded=0;whiteSpace=wrap;html=1;" parent="WIyWlLk6GJQsqaUBKTNV-1" vertex="1">
          <mxGeometry x="582.5" y="850" width="120" height="60" as="geometry" />
        </mxCell>
        <mxCell id="z37wiqLl9ZZw4IJFHGuv-2" style="edgeStyle=orthogonalEdgeStyle;rounded=0;orthogonalLoop=1;jettySize=auto;html=1;exitX=1;exitY=0.5;exitDx=0;exitDy=0;entryX=0;entryY=0.5;entryDx=0;entryDy=0;" edge="1" parent="WIyWlLk6GJQsqaUBKTNV-1" source="z37wiqLl9ZZw4IJFHGuv-0" target="z37wiqLl9ZZw4IJFHGuv-1">
          <mxGeometry relative="1" as="geometry" />
        </mxCell>
        <mxCell id="z37wiqLl9ZZw4IJFHGuv-6" value="" style="edgeStyle=orthogonalEdgeStyle;rounded=0;orthogonalLoop=1;jettySize=auto;html=1;" edge="1" parent="WIyWlLk6GJQsqaUBKTNV-1" source="z37wiqLl9ZZw4IJFHGuv-0" target="z37wiqLl9ZZw4IJFHGuv-5">
          <mxGeometry relative="1" as="geometry" />
        </mxCell>
        <mxCell id="z37wiqLl9ZZw4IJFHGuv-0" value="当前选卡时间是否充足" style="rhombus;whiteSpace=wrap;html=1;" vertex="1" parent="WIyWlLk6GJQsqaUBKTNV-1">
          <mxGeometry x="567.5" y="950" width="150" height="80" as="geometry" />
        </mxCell>
        <mxCell id="z37wiqLl9ZZw4IJFHGuv-7" style="edgeStyle=orthogonalEdgeStyle;rounded=0;orthogonalLoop=1;jettySize=auto;html=1;exitX=0.5;exitY=1;exitDx=0;exitDy=0;entryX=1;entryY=0.5;entryDx=0;entryDy=0;" edge="1" parent="WIyWlLk6GJQsqaUBKTNV-1" source="z37wiqLl9ZZw4IJFHGuv-1" target="z37wiqLl9ZZw4IJFHGuv-5">
          <mxGeometry relative="1" as="geometry" />
        </mxCell>
        <mxCell id="z37wiqLl9ZZw4IJFHGuv-1" value="增加时间" style="rounded=0;whiteSpace=wrap;html=1;" vertex="1" parent="WIyWlLk6GJQsqaUBKTNV-1">
          <mxGeometry x="752.5" y="960" width="120" height="60" as="geometry" />
        </mxCell>
        <mxCell id="z37wiqLl9ZZw4IJFHGuv-3" value="no" style="text;html=1;strokeColor=none;fillColor=none;align=center;verticalAlign=middle;whiteSpace=wrap;rounded=0;" vertex="1" parent="WIyWlLk6GJQsqaUBKTNV-1">
          <mxGeometry x="712.5" y="960" width="60" height="30" as="geometry" />
        </mxCell>
        <mxCell id="z37wiqLl9ZZw4IJFHGuv-5" value="返回" style="whiteSpace=wrap;html=1;" vertex="1" parent="WIyWlLk6GJQsqaUBKTNV-1">
          <mxGeometry x="582.5" y="1080" width="120" height="60" as="geometry" />
        </mxCell>
      </root>
    </mxGraphModel>
  </diagram>
</mxfile>
